<?xml version="1.0" encoding="utf-8"?>
<svg version="1.1" id="Layer_1" xmlns="http://www.w3.org/2000/svg" xmlns:xlink="http://www.w3.org/1999/xlink" x="0px" y="0px"
	 viewBox="0 0 163.8 55.8" style="enable-background:new 0 0 163.8 55.8;" xml:space="preserve">
<style type="text/css">
	.st0{fill:#9DD8D8;}
	.st1{fill:#51749A;}
</style>
<g>
	<path class="st0" d="M10.3,31c0,1.3,1.1,2.4,2.4,2.4H21c0.4,0,0.7,0.3,0.7,0.7v8.3c0,1.3,1.1,2.4,2.4,2.4h6.7
		c1.3,0,2.4-1.1,2.4-2.4v-8.3c0-0.4,0.3-0.7,0.7-0.7H45c5.7,0,8.7,10,3,15.7c-4.4,4.4-11.1,6.7-20.5,6.7C7.7,55.8,0,45.8,0,27.9
		S7.7,0,27.5,0C37,0,43.6,2.3,48,6.7c5.7,5.7,2.6,15.7-3,15.7H33.7c-0.4,0-0.7-0.3-0.7-0.7v-8.3c0-1.3-1.1-2.4-2.4-2.4h-6.7
		c-1.3,0-2.4,1.1-2.4,2.4v8.3c0,0.4-0.3,0.7-0.7,0.7h-8.3c-1.3,0-2.4,1.1-2.4,2.4V31H10.3z"/>
</g>
<path class="st1" d="M93.7,35.1c-0.3-0.3-0.9-0.3-1.2,0c-1.2,1.1-2.8,2.1-6.1,2.1c-5.9,0-8.8-3-8.8-9.4c0-6.3,2.9-9.4,8.7-9.4
	c2.3,0,4.4,0.7,5.9,2c0.3,0.3,0.9,0.3,1.2-0.1l1.2-1.2c0.2-0.2,0.3-0.4,0.3-0.7s-0.1-0.5-0.3-0.7c-2.1-1.8-5-2.8-8.3-2.8
	c-8.1,0-12.3,4.4-12.3,12.7c0,8.5,4.1,12.7,12.2,12.7c4.8,0,7.3-1.7,8.6-3c0.2-0.1,0.3-0.4,0.3-0.7c0-0.3-0.1-0.5-0.3-0.7L93.7,35.1
	z"/>
<path class="st1" d="M104.7,36.8h-0.5c-1.7,0-1.8-0.3-1.8-2.2V12c0-0.5-0.4-0.9-0.9-0.9h-1.9c-0.5,0-0.9,0.4-0.9,0.9v22.9
	c0,3.3,0.8,5.3,4.6,5.3c0.5,0,1,0,1.4-0.1c0.5,0,0.9-0.4,0.9-0.9v-1.6C105.6,37.2,105.2,36.8,104.7,36.8z"/>
<path class="st1" d="M111.5,19.2h-1.9c-0.5,0-0.9,0.4-0.9,0.9v19.2c0,0.5,0.4,0.9,0.9,0.9h1.9c0.5,0,0.9-0.4,0.9-0.9V20.1
	C112.3,19.6,111.9,19.2,111.5,19.2z"/>
<path class="st1" d="M127.3,18.7c-3.4,0-5.7,0.6-7.1,2v-0.2c-0.1-0.9-0.6-1.3-1.5-1.2l-0.9,0.1c-0.5,0-0.9,0.4-0.9,0.9v19
	c0,0.5,0.4,0.9,0.9,0.9h2c0.5,0,0.9-0.4,0.9-0.9V28.5c0-3.7,0.9-6.1,5.8-6.1c4.5,0,4.8,2.1,4.8,5.5v11.3c0,0.5,0.4,0.9,0.9,0.9h2
	c0.5,0,0.9-0.4,0.9-0.9V27.4C135,22.8,134.4,18.7,127.3,18.7z"/>
<path class="st1" d="M141.9,19.2H140c-0.5,0-0.9,0.4-0.9,0.9v19.2c0,0.5,0.4,0.9,0.9,0.9h1.9c0.5,0,0.9-0.4,0.9-0.9V20.1
	C142.7,19.6,142.3,19.2,141.9,19.2z"/>
<path class="st1" d="M110.5,12.3c-1.5,0-2.2,0.8-2.2,2.4c0,1.5,0.7,2.4,2.2,2.4c1,0,2.2-0.4,2.2-2.4S111.5,12.3,110.5,12.3z"/>
<path class="st1" d="M140.9,12.3c-1.5,0-2.2,0.8-2.2,2.4c0,1.5,0.7,2.4,2.2,2.4c1,0,2.2-0.4,2.2-2.4
	C143.1,13.1,142.4,12.3,140.9,12.3z"/>
<path class="st1" d="M152.8,28.2l5.9-0.8c1.2-0.2,1.6-0.8,1.6-1.5c0-2-1.3-3.7-4.4-3.7c-3,0-4.1,1.3-5.1,3.2
	c-0.2,0.5-0.5,0.7-1.1,0.7l-1.9-0.5c-0.5-0.1-0.8-0.6-0.7-1.1c0.8-3.4,4.3-5.8,8.4-5.8c6.2,0,8.3,3.5,8.3,7.5v10.4
	c0,1.1,0.1,2.1,0.1,2.7c0.1,0.5-0.3,0.8-0.7,0.8h-2c-0.4,0-0.7-0.3-0.7-0.7c-0.1-0.5-0.1-1.1-0.1-2.1c-0.9,1.5-3.3,3.1-7,3.1
	c-4.2,0-6.9-2.8-6.9-6.1C146.5,30.8,149.2,28.7,152.8,28.2z M160.2,30.9v-0.7l-6.6,0.9c-1.7,0.3-3.3,1.2-3.3,3.1
	c0,1.5,1.5,2.8,3.6,2.8C157.3,37,160.2,33.9,160.2,30.9z"/>
</svg>